SourceCode_ExtraLight.ufo
<glyph name="GREATERCOMPONENT" format="1">
  <advance width="600"/>
  <outline>
    <contour>
      <point x="600" y="346" type="line"/>
      <point x="0" y="627" type="line"/>
      <point x="0" y="591" type="line"/>
      <point x="568" y="332" type="line"/>
      <point x="568" y="328" type="line"/>
      <point x="0" y="69" type="line"/>
      <point x="0" y="33" type="line"/>
      <point x="600" y="314" type="line"/>
    </contour>
  </outline>
</glyph>
<glyph name="asciitilde_asciitilde" format="1">
  <advance width="1200"/>
  <outline>
    <contour>
      <point x="143" y="352"/>
      <point x="170" y="362"/>
      <point x="201" y="362" type="curve" smooth="yes"/>
      <point x="255" y="362"/>
      <point x="300" y="270"/>
      <point x="371" y="270" type="curve" smooth="yes"/>
      <point x="400" y="270"/>
      <point x="430" y="283"/>
      <point x="454" y="325" type="curve" smooth="yes"/>
      <point x="473" y="357"/>
      <point x="493" y="362"/>
      <point x="515" y="362" type="curve" smooth="yes"/>
      <point x="569" y="362"/>
      <point x="613" y="270"/>
      <point x="684" y="270" type="curve" smooth="yes"/>
      <point x="713" y="270"/>
      <point x="744" y="283"/>
      <point x="768" y="325" type="curve" smooth="yes"/>
      <point x="786" y="357"/>
      <point x="806" y="362"/>
      <point x="828" y="362" type="curve" smooth="yes"/>
      <point x="883" y="362"/>
      <point x="927" y="270"/>
      <point x="998" y="270" type="curve" smooth="yes"/>
      <point x="1037" y="270"/>
      <point x="1078" y="294"/>
      <point x="1104" y="378" type="curve"/>
      <point x="1082" y="388" type="line"/>
      <point x="1057" y="306"/>
      <point x="1031" y="298"/>
      <point x="999" y="298" type="curve" smooth="yes"/>
      <point x="946" y="298"/>
      <point x="901" y="390"/>
      <point x="830" y="390" type="curve" smooth="yes"/>
      <point x="802" y="390"/>
      <point x="771" y="377"/>
      <point x="747" y="334" type="curve" smooth="yes"/>
      <point x="728" y="302"/>
      <point x="709" y="298"/>
      <point x="686" y="298" type="curve" smooth="yes"/>
      <point x="632" y="298"/>
      <point x="588" y="390"/>
      <point x="517" y="390" type="curve" smooth="yes"/>
      <point x="488" y="390"/>
      <point x="457" y="377"/>
      <point x="433" y="334" type="curve" smooth="yes"/>
      <point x="414" y="301"/>
      <point x="395" y="298"/>
      <point x="373" y="298" type="curve" smooth="yes"/>
      <point x="319" y="298"/>
      <point x="274" y="390"/>
      <point x="203" y="390" type="curve" smooth="yes"/>
      <point x="164" y="390"/>
      <point x="122" y="366"/>
      <point x="96" y="280" type="curve"/>
      <point x="119" y="272" type="line"/>
    </contour>
  </outline>
</glyph>
<glyph name="asciitilde_asciitilde_greater" format="1">
  <advance width="1800"/>
  <outline>
    <contour>
      <point x="1676" y="316" type="line"/>
      <point x="1676" y="348" type="line"/>
      <point x="1314" y="602" type="line"/>
      <point x="1314" y="566" type="line"/>
      <point x="1565" y="390" type="line"/>
      <point x="1558" y="390" type="line" smooth="yes"/>
      <point x="1528" y="390"/>
      <point x="1495" y="377"/>
      <point x="1469" y="334" type="curve" smooth="yes"/>
      <point x="1449" y="302"/>
      <point x="1428" y="298"/>
      <point x="1404" y="298" type="curve" smooth="yes"/>
      <point x="1346" y="298"/>
      <point x="1298" y="390"/>
      <point x="1221" y="390" type="curve" smooth="yes"/>
      <point x="1190" y="390"/>
      <point x="1158" y="377"/>
      <point x="1132" y="334" type="curve" smooth="yes"/>
      <point x="1112" y="301"/>
      <point x="1090" y="298"/>
      <point x="1067" y="298" type="curve" smooth="yes"/>
      <point x="1009" y="298"/>
      <point x="961" y="390"/>
      <point x="885" y="390" type="curve" smooth="yes"/>
      <point x="854" y="390"/>
      <point x="822" y="377"/>
      <point x="795" y="334" type="curve" smooth="yes"/>
      <point x="775" y="302"/>
      <point x="754" y="298"/>
      <point x="730" y="298" type="curve" smooth="yes"/>
      <point x="672" y="298"/>
      <point x="624" y="390"/>
      <point x="548" y="390" type="curve" smooth="yes"/>
      <point x="517" y="390"/>
      <point x="484" y="377"/>
      <point x="458" y="334" type="curve" smooth="yes"/>
      <point x="438" y="301"/>
      <point x="417" y="298"/>
      <point x="393" y="298" type="curve" smooth="yes"/>
      <point x="336" y="298"/>
      <point x="288" y="390"/>
      <point x="211" y="390" type="curve" smooth="yes"/>
      <point x="169" y="390"/>
      <point x="124" y="366"/>
      <point x="96" y="280" type="curve"/>
      <point x="121" y="272" type="line"/>
      <point x="146" y="352"/>
      <point x="175" y="362"/>
      <point x="209" y="362" type="curve" smooth="yes"/>
      <point x="267" y="362"/>
      <point x="315" y="270"/>
      <point x="391" y="270" type="curve" smooth="yes"/>
      <point x="422" y="270"/>
      <point x="455" y="283"/>
      <point x="481" y="325" type="curve" smooth="yes"/>
      <point x="501" y="357"/>
      <point x="522" y="362"/>
      <point x="546" y="362" type="curve" smooth="yes"/>
      <point x="604" y="362"/>
      <point x="652" y="270"/>
      <point x="728" y="270" type="curve" smooth="yes"/>
      <point x="759" y="270"/>
      <point x="792" y="283"/>
      <point x="818" y="325" type="curve" smooth="yes"/>
      <point x="837" y="357"/>
      <point x="859" y="362"/>
      <point x="883" y="362" type="curve" smooth="yes"/>
      <point x="941" y="362"/>
      <point x="989" y="270"/>
      <point x="1065" y="270" type="curve" smooth="yes"/>
      <point x="1096" y="270"/>
      <point x="1128" y="283"/>
      <point x="1154" y="325" type="curve" smooth="yes"/>
      <point x="1175" y="357"/>
      <point x="1196" y="362"/>
      <point x="1220" y="362" type="curve" smooth="yes"/>
      <point x="1278" y="362"/>
      <point x="1325" y="270"/>
      <point x="1402" y="270" type="curve" smooth="yes"/>
      <point x="1433" y="270"/>
      <point x="1465" y="283"/>
      <point x="1491" y="325" type="curve" smooth="yes"/>
      <point x="1511" y="357"/>
      <point x="1533" y="362"/>
      <point x="1556" y="362" type="curve" smooth="yes"/>
      <point x="1583" y="362"/>
      <point x="1607" y="343"/>
      <point x="1633" y="322" type="curve"/>
      <point x="1314" y="98" type="line"/>
      <point x="1314" y="62" type="line"/>
    </contour>
  </outline>
</glyph>
<glyph name="asciitilde_greater" format="1">
  <advance width="1200"/>
  <outline>
    <contour>
      <point x="1076" y="316" type="line"/>
      <point x="1076" y="348" type="line"/>
      <point x="714" y="602" type="line"/>
      <point x="714" y="566" type="line"/>
      <point x="979" y="380" type="line"/>
      <point x="964" y="386"/>
      <point x="949" y="390"/>
      <point x="932" y="390" type="curve" smooth="yes"/>
      <point x="900" y="390"/>
      <point x="865" y="377"/>
      <point x="837" y="334" type="curve" smooth="yes"/>
      <point x="816" y="302"/>
      <point x="794" y="298"/>
      <point x="768" y="298" type="curve" smooth="yes"/>
      <point x="707" y="298"/>
      <point x="656" y="390"/>
      <point x="575" y="390" type="curve" smooth="yes"/>
      <point x="542" y="390"/>
      <point x="508" y="377"/>
      <point x="480" y="334" type="curve" smooth="yes"/>
      <point x="459" y="301"/>
      <point x="436" y="298"/>
      <point x="411" y="298" type="curve" smooth="yes"/>
      <point x="350" y="298"/>
      <point x="299" y="390"/>
      <point x="218" y="390" type="curve" smooth="yes"/>
      <point x="173" y="390"/>
      <point x="126" y="366"/>
      <point x="96" y="280" type="curve"/>
      <point x="122" y="272" type="line"/>
      <point x="149" y="352"/>
      <point x="180" y="362"/>
      <point x="216" y="362" type="curve" smooth="yes"/>
      <point x="277" y="362"/>
      <point x="328" y="270"/>
      <point x="409" y="270" type="curve" smooth="yes"/>
      <point x="442" y="270"/>
      <point x="476" y="283"/>
      <point x="504" y="325" type="curve" smooth="yes"/>
      <point x="525" y="357"/>
      <point x="548" y="362"/>
      <point x="573" y="362" type="curve" smooth="yes"/>
      <point x="635" y="362"/>
      <point x="685" y="270"/>
      <point x="766" y="270" type="curve" smooth="yes"/>
      <point x="799" y="270"/>
      <point x="834" y="283"/>
      <point x="861" y="325" type="curve" smooth="yes"/>
      <point x="882" y="357"/>
      <point x="905" y="362"/>
      <point x="930" y="362" type="curve" smooth="yes"/>
      <point x="962" y="362"/>
      <point x="990" y="338"/>
      <point x="1022" y="314" type="curve"/>
      <point x="714" y="98" type="line"/>
      <point x="714" y="62" type="line"/>
    </contour>
  </outline>
</glyph>
<glyph name="colon_equal" format="1">
  <advance width="1200"/>
  <outline>
    <contour>
      <point x="1102" y="416" type="line"/>
      <point x="1102" y="444" type="line"/>
      <point x="518" y="444" type="line"/>
      <point x="518" y="416" type="line"/>
    </contour>
    <contour>
      <point x="326" y="173"/>
      <point x="352" y="193"/>
      <point x="352" y="231" type="curve" smooth="yes"/>
      <point x="352" y="269"/>
      <point x="326" y="289"/>
      <point x="300" y="289" type="curve" smooth="yes"/>
      <point x="274" y="289"/>
      <point x="248" y="269"/>
      <point x="248" y="231" type="curve" smooth="yes"/>
      <point x="248" y="193"/>
      <point x="274" y="173"/>
      <point x="300" y="173" type="curve" smooth="yes"/>
    </contour>
    <contour>
      <point x="326" y="372"/>
      <point x="352" y="392"/>
      <point x="352" y="430" type="curve" smooth="yes"/>
      <point x="352" y="468"/>
      <point x="326" y="488"/>
      <point x="300" y="488" type="curve" smooth="yes"/>
      <point x="274" y="488"/>
      <point x="248" y="468"/>
      <point x="248" y="430" type="curve" smooth="yes"/>
      <point x="248" y="392"/>
      <point x="274" y="372"/>
      <point x="300" y="372" type="curve" smooth="yes"/>
    </contour>
    <contour>
      <point x="1102" y="216" type="line"/>
      <point x="1102" y="244" type="line"/>
      <point x="518" y="244" type="line"/>
      <point x="518" y="216" type="line"/>
    </contour>
  </outline>
</glyph>
<glyph name="dollar_greater" format="1">
  <advance width="1200"/>
  <outline>
    <contour>
      <point x="530" y="-8" type="line"/>
      <point x="530" y="107" type="line"/>
      <point x="608" y="110"/>
      <point x="674" y="155"/>
      <point x="674" y="227" type="curve" smooth="yes"/>
      <point x="674" y="374"/>
      <point x="403" y="349"/>
      <point x="403" y="462" type="curve" smooth="yes"/>
      <point x="403" y="517"/>
      <point x="449" y="552"/>
      <point x="517" y="552" type="curve" smooth="yes"/>
      <point x="578" y="552"/>
      <point x="605" y="533"/>
      <point x="640" y="502" type="curve"/>
      <point x="656" y="518" type="line"/>
      <point x="625" y="547"/>
      <point x="591" y="571"/>
      <point x="530" y="574" type="curve"/>
      <point x="530" y="680" type="line"/>
      <point x="506" y="680" type="line"/>
      <point x="506" y="574" type="line"/>
      <point x="433" y="569"/>
      <point x="378" y="527"/>
      <point x="378" y="461" type="curve" smooth="yes"/>
      <point x="378" y="328"/>
      <point x="648" y="350"/>
      <point x="648" y="226" type="curve" smooth="yes"/>
      <point x="648" y="170"/>
      <point x="603" y="130"/>
      <point x="521" y="130" type="curve" smooth="yes"/>
      <point x="453" y="130"/>
      <point x="400" y="160"/>
      <point x="368" y="187" type="curve"/>
      <point x="354" y="170" type="line"/>
      <point x="387" y="141"/>
      <point x="440" y="111"/>
      <point x="506" y="107" type="curve"/>
      <point x="506" y="-8" type="line"/>
    </contour>
    <contour>
      <point x="1076" y="316" type="line"/>
      <point x="1076" y="348" type="line"/>
      <point x="714" y="602" type="line"/>
      <point x="714" y="566" type="line"/>
      <point x="1044" y="334" type="line"/>
      <point x="1044" y="330" type="line"/>
      <point x="714" y="98" type="line"/>
      <point x="714" y="62" type="line"/>
    </contour>
  </outline>
</glyph>
<glyph name="equal_colon_equal" format="1">
  <advance width="1800"/>
  <outline>
    <contour>
      <point x="1702" y="416" type="line"/>
      <point x="1702" y="444" type="line"/>
      <point x="1118" y="444" type="line"/>
      <point x="1118" y="416" type="line"/>
    </contour>
    <contour>
      <point x="682" y="216" type="line"/>
      <point x="682" y="244" type="line"/>
      <point x="98" y="244" type="line"/>
      <point x="98" y="216" type="line"/>
    </contour>
    <contour>
      <point x="682" y="416" type="line"/>
      <point x="682" y="444" type="line"/>
      <point x="98" y="444" type="line"/>
      <point x="98" y="416" type="line"/>
    </contour>
    <contour>
      <point x="926" y="173"/>
      <point x="952" y="193"/>
      <point x="952" y="231" type="curve" smooth="yes"/>
      <point x="952" y="269"/>
      <point x="926" y="289"/>
      <point x="900" y="289" type="curve" smooth="yes"/>
      <point x="874" y="289"/>
      <point x="848" y="269"/>
      <point x="848" y="231" type="curve" smooth="yes"/>
      <point x="848" y="193"/>
      <point x="874" y="173"/>
      <point x="900" y="173" type="curve" smooth="yes"/>
    </contour>
    <contour>
      <point x="926" y="372"/>
      <point x="952" y="392"/>
      <point x="952" y="430" type="curve" smooth="yes"/>
      <point x="952" y="468"/>
      <point x="926" y="488"/>
      <point x="900" y="488" type="curve" smooth="yes"/>
      <point x="874" y="488"/>
      <point x="848" y="468"/>
      <point x="848" y="430" type="curve" smooth="yes"/>
      <point x="848" y="392"/>
      <point x="874" y="372"/>
      <point x="900" y="372" type="curve" smooth="yes"/>
    </contour>
    <contour>
      <point x="1702" y="216" type="line"/>
      <point x="1702" y="244" type="line"/>
      <point x="1118" y="244" type="line"/>
      <point x="1118" y="216" type="line"/>
    </contour>
  </outline>
</glyph>
<glyph name="equal_equal_greater" format="1">
  <advance width="1800"/>
  <outline>
    <contour>
      <point x="1780" y="328" type="line"/>
      <point x="1780" y="332" type="line"/>
      <point x="1512" y="596" type="line"/>
      <point x="1492" y="576" type="line"/>
      <point x="1629" y="444" type="line"/>
      <point x="30" y="444" type="line"/>
      <point x="30" y="416" type="line"/>
      <point x="1659" y="416" type="line"/>
      <point x="1746" y="332" type="line"/>
      <point x="1746" y="328" type="line"/>
      <point x="1659" y="244" type="line"/>
      <point x="30" y="244" type="line"/>
      <point x="30" y="216" type="line"/>
      <point x="1629" y="216" type="line"/>
      <point x="1492" y="84" type="line"/>
      <point x="1512" y="64" type="line"/>
    </contour>
  </outline>
</glyph>
<glyph name="equal_exclam_equal" format="1">
  <advance width="1800"/>
  <outline>
    <contour>
      <point x="1702" y="416" type="line"/>
      <point x="1702" y="444" type="line"/>
      <point x="1118" y="444" type="line"/>
      <point x="1118" y="416" type="line"/>
    </contour>
    <contour>
      <point x="682" y="216" type="line"/>
      <point x="682" y="244" type="line"/>
      <point x="98" y="244" type="line"/>
      <point x="98" y="216" type="line"/>
    </contour>
    <contour>
      <point x="682" y="416" type="line"/>
      <point x="682" y="444" type="line"/>
      <point x="98" y="444" type="line"/>
      <point x="98" y="416" type="line"/>
    </contour>
    <contour>
      <point x="1702" y="216" type="line"/>
      <point x="1702" y="244" type="line"/>
      <point x="1118" y="244" type="line"/>
      <point x="1118" y="216" type="line"/>
    </contour>
    <component base="exclam" xOffset="600"/>
  </outline>
</glyph>
<glyph name="equal_greater" format="1">
  <advance width="1200"/>
  <outline>
    <contour>
      <point x="1076" y="314" type="line"/>
      <point x="1076" y="346" type="line"/>
      <point x="714" y="600" type="line"/>
      <point x="714" y="564" type="line"/>
      <point x="885" y="444" type="line"/>
      <point x="98" y="444" type="line"/>
      <point x="98" y="416" type="line"/>
      <point x="925" y="416" type="line"/>
      <point x="1044" y="332" type="line"/>
      <point x="1044" y="328" type="line"/>
      <point x="925" y="244" type="line"/>
      <point x="98" y="244" type="line"/>
      <point x="98" y="216" type="line"/>
      <point x="885" y="216" type="line"/>
      <point x="714" y="96" type="line"/>
      <point x="714" y="60" type="line"/>
    </contour>
  </outline>
</glyph>
<glyph name="equal_less_less" format="1">
  <advance width="1800"/>
  <outline>
    <contour>
      <point x="98" y="416" type="line"/>
      <point x="920" y="416" type="line"/>
      <point x="920" y="444" type="line"/>
      <point x="98" y="444" type="line"/>
    </contour>
    <contour>
      <point x="98" y="216" type="line"/>
      <point x="924" y="216" type="line"/>
      <point x="924" y="244" type="line"/>
      <point x="98" y="244" type="line"/>
    </contour>
    <component base="less_less"/>
  </outline>
</glyph>
<glyph name="equal_slash_equal" format="1">
  <advance width="1800"/>
  <outline>
    <contour>
      <point x="754" y="-160" type="line"/>
      <point x="1080" y="710" type="line"/>
      <point x="1046" y="710" type="line"/>
      <point x="720" y="-160" type="line"/>
    </contour>
    <contour>
      <point x="782" y="216" type="line"/>
      <point x="792" y="244" type="line"/>
      <point x="98" y="244" type="line"/>
      <point x="98" y="216" type="line"/>
    </contour>
    <contour>
      <point x="857" y="416" type="line"/>
      <point x="867" y="444" type="line"/>
      <point x="98" y="444" type="line"/>
      <point x="98" y="416" type="line"/>
    </contour>
    <contour>
      <point x="1702" y="216" type="line"/>
      <point x="1702" y="244" type="line"/>
      <point x="984" y="244" type="line"/>
      <point x="974" y="216" type="line"/>
    </contour>
    <contour>
      <point x="1702" y="416" type="line"/>
      <point x="1702" y="444" type="line"/>
      <point x="1059" y="444" type="line"/>
      <point x="1049" y="416" type="line"/>
    </contour>
  </outline>
</glyph>
<glyph name="greater_equal" format="1">
  <advance width="1200"/>
  <outline>
    <contour>
      <point x="409" y="62" type="line"/>
      <point x="771" y="316" type="line"/>
      <point x="771" y="348" type="line"/>
      <point x="409" y="602" type="line"/>
      <point x="409" y="566" type="line"/>
      <point x="739" y="334" type="line"/>
      <point x="739" y="330" type="line"/>
      <point x="409" y="98" type="line"/>
    </contour>
    <contour>
      <point x="409" y="-66" type="line"/>
      <point x="771" y="188" type="line"/>
      <point x="771" y="220" type="line"/>
      <point x="409" y="-30" type="line"/>
    </contour>
  </outline>
</glyph>
<glyph name="hyphen_greater" format="1">
  <advance width="1200"/>
  <outline>
    <contour>
      <point x="98" y="316" type="line"/>
      <point x="1024" y="316" type="line"/>
      <point x="714" y="98" type="line"/>
      <point x="714" y="62" type="line"/>
      <point x="1098" y="331" type="line"/>
      <point x="714" y="602" type="line"/>
      <point x="714" y="566" type="line"/>
      <point x="1030" y="344" type="line"/>
      <point x="98" y="344" type="line"/>
    </contour>
  </outline>
</glyph>
<glyph name="hyphen_greater_greater" format="1">
  <advance width="1800"/>
  <outline>
    <contour>
      <point x="1496" y="315" type="line"/>
      <point x="1734" y="316" type="line"/>
      <point x="1492" y="84" type="line"/>
      <point x="1512" y="64" type="line"/>
      <point x="1780" y="328" type="line"/>
      <point x="1780" y="332" type="line"/>
      <point x="1512" y="596" type="line"/>
      <point x="1492" y="576" type="line"/>
      <point x="1734" y="344" type="line"/>
      <point x="1498" y="343" type="line"/>
      <point x="1241" y="596" type="line"/>
      <point x="1221" y="576" type="line"/>
      <point x="1463" y="344" type="line"/>
      <point x="30" y="338" type="line"/>
      <point x="30" y="310" type="line"/>
      <point x="1462" y="315" type="line"/>
      <point x="1221" y="84" type="line"/>
      <point x="1241" y="64" type="line"/>
    </contour>
  </outline>
</glyph>
<glyph name="hyphen_less" format="1">
  <advance width="1200"/>
  <outline>
    <contour>
      <point x="98" y="316" type="line"/>
      <point x="724" y="316" type="line"/>
      <point x="1086" y="62" type="line"/>
      <point x="1086" y="98" type="line"/>
      <point x="753" y="332" type="line"/>
      <point x="1086" y="566" type="line"/>
      <point x="1086" y="602" type="line"/>
      <point x="718" y="344" type="line"/>
      <point x="98" y="344" type="line"/>
    </contour>
  </outline>
</glyph>
<glyph name="hyphen_less_less" format="1">
  <advance width="1800"/>
  <outline>
    <contour>
      <point x="1338" y="96" type="line"/>
      <point x="1025" y="316" type="line"/>
      <point x="1324" y="316" type="line"/>
      <point x="1686" y="60" type="line"/>
      <point x="1686" y="96" type="line"/>
      <point x="1356" y="328" type="line"/>
      <point x="1356" y="332" type="line"/>
      <point x="1686" y="564" type="line"/>
      <point x="1686" y="600" type="line"/>
      <point x="1324" y="344" type="line"/>
      <point x="1025" y="344" type="line"/>
      <point x="1338" y="564" type="line"/>
      <point x="1338" y="600" type="line"/>
      <point x="976" y="344" type="line"/>
      <point x="98" y="344" type="line"/>
      <point x="98" y="316" type="line"/>
      <point x="976" y="316" type="line"/>
      <point x="1338" y="60" type="line"/>
    </contour>
  </outline>
</glyph>
<glyph name="less_asciitilde" format="1">
  <advance width="1200"/>
  <outline>
    <contour>
      <point x="486" y="98" type="line"/>
      <point x="233" y="276" type="line"/>
      <point x="244" y="272"/>
      <point x="256" y="270"/>
      <point x="269" y="270" type="curve" smooth="yes"/>
      <point x="302" y="270"/>
      <point x="336" y="283"/>
      <point x="364" y="325" type="curve" smooth="yes"/>
      <point x="385" y="357"/>
      <point x="408" y="362"/>
      <point x="433" y="362" type="curve" smooth="yes"/>
      <point x="495" y="362"/>
      <point x="545" y="270"/>
      <point x="626" y="270" type="curve" smooth="yes"/>
      <point x="659" y="270"/>
      <point x="694" y="283"/>
      <point x="721" y="325" type="curve" smooth="yes"/>
      <point x="742" y="357"/>
      <point x="765" y="362"/>
      <point x="790" y="362" type="curve" smooth="yes"/>
      <point x="852" y="362"/>
      <point x="903" y="270"/>
      <point x="983" y="270" type="curve" smooth="yes"/>
      <point x="1028" y="270"/>
      <point x="1074" y="294"/>
      <point x="1104" y="378" type="curve"/>
      <point x="1079" y="388" type="line"/>
      <point x="1051" y="306"/>
      <point x="1021" y="298"/>
      <point x="985" y="298" type="curve" smooth="yes"/>
      <point x="924" y="298"/>
      <point x="873" y="390"/>
      <point x="792" y="390" type="curve" smooth="yes"/>
      <point x="760" y="390"/>
      <point x="725" y="377"/>
      <point x="697" y="334" type="curve" smooth="yes"/>
      <point x="676" y="302"/>
      <point x="654" y="298"/>
      <point x="628" y="298" type="curve" smooth="yes"/>
      <point x="567" y="298"/>
      <point x="516" y="390"/>
      <point x="435" y="390" type="curve" smooth="yes"/>
      <point x="402" y="390"/>
      <point x="368" y="377"/>
      <point x="340" y="334" type="curve" smooth="yes"/>
      <point x="318" y="302"/>
      <point x="296" y="298"/>
      <point x="271" y="298" type="curve" smooth="yes"/>
      <point x="238" y="298"/>
      <point x="209" y="324"/>
      <point x="176" y="348" type="curve"/>
      <point x="486" y="566" type="line"/>
      <point x="486" y="602" type="line"/>
      <point x="124" y="348" type="line"/>
      <point x="124" y="316" type="line"/>
      <point x="486" y="62" type="line"/>
    </contour>
  </outline>
</glyph>
<glyph name="less_asciitilde_asciitilde" format="1">
  <advance width="1800"/>
  <outline>
    <contour>
      <point x="486" y="98" type="line"/>
      <point x="233" y="276" type="line"/>
      <point x="244" y="272"/>
      <point x="256" y="270"/>
      <point x="269" y="270" type="curve" smooth="yes"/>
      <point x="299" y="270"/>
      <point x="331" y="283"/>
      <point x="356" y="325" type="curve" smooth="yes"/>
      <point x="376" y="357"/>
      <point x="397" y="362"/>
      <point x="420" y="362" type="curve" smooth="yes"/>
      <point x="477" y="362"/>
      <point x="523" y="270"/>
      <point x="597" y="270" type="curve" smooth="yes"/>
      <point x="627" y="270"/>
      <point x="659" y="283"/>
      <point x="684" y="325" type="curve" smooth="yes"/>
      <point x="704" y="357"/>
      <point x="725" y="362"/>
      <point x="748" y="362" type="curve" smooth="yes"/>
      <point x="805" y="362"/>
      <point x="851" y="270"/>
      <point x="925" y="270" type="curve" smooth="yes"/>
      <point x="956" y="270"/>
      <point x="987" y="283"/>
      <point x="1013" y="325" type="curve" smooth="yes"/>
      <point x="1032" y="357"/>
      <point x="1053" y="362"/>
      <point x="1076" y="362" type="curve" smooth="yes"/>
      <point x="1133" y="362"/>
      <point x="1179" y="270"/>
      <point x="1253" y="270" type="curve" smooth="yes"/>
      <point x="1284" y="270"/>
      <point x="1315" y="283"/>
      <point x="1341" y="325" type="curve" smooth="yes"/>
      <point x="1360" y="357"/>
      <point x="1381" y="362"/>
      <point x="1404" y="362" type="curve" smooth="yes"/>
      <point x="1461" y="362"/>
      <point x="1507" y="270"/>
      <point x="1581" y="270" type="curve" smooth="yes"/>
      <point x="1626" y="270"/>
      <point x="1672" y="294"/>
      <point x="1702" y="378" type="curve"/>
      <point x="1677" y="388" type="line"/>
      <point x="1649" y="306"/>
      <point x="1619" y="298"/>
      <point x="1583" y="298" type="curve" smooth="yes"/>
      <point x="1527" y="298"/>
      <point x="1480" y="390"/>
      <point x="1406" y="390" type="curve" smooth="yes"/>
      <point x="1376" y="390"/>
      <point x="1344" y="377"/>
      <point x="1319" y="334" type="curve" smooth="yes"/>
      <point x="1299" y="301"/>
      <point x="1278" y="298"/>
      <point x="1255" y="298" type="curve" smooth="yes"/>
      <point x="1199" y="298"/>
      <point x="1152" y="390"/>
      <point x="1078" y="390" type="curve" smooth="yes"/>
      <point x="1047" y="390"/>
      <point x="1016" y="377"/>
      <point x="991" y="334" type="curve" smooth="yes"/>
      <point x="971" y="301"/>
      <point x="950" y="298"/>
      <point x="927" y="298" type="curve" smooth="yes"/>
      <point x="871" y="298"/>
      <point x="824" y="390"/>
      <point x="750" y="390" type="curve" smooth="yes"/>
      <point x="719" y="390"/>
      <point x="688" y="377"/>
      <point x="662" y="334" type="curve" smooth="yes"/>
      <point x="643" y="301"/>
      <point x="622" y="298"/>
      <point x="599" y="298" type="curve" smooth="yes"/>
      <point x="543" y="298"/>
      <point x="496" y="390"/>
      <point x="422" y="390" type="curve" smooth="yes"/>
      <point x="391" y="390"/>
      <point x="360" y="377"/>
      <point x="334" y="334" type="curve" smooth="yes"/>
      <point x="315" y="301"/>
      <point x="294" y="298"/>
      <point x="271" y="298" type="curve" smooth="yes"/>
      <point x="238" y="298"/>
      <point x="209" y="324"/>
      <point x="176" y="348" type="curve"/>
      <point x="486" y="566" type="line"/>
      <point x="486" y="602" type="line"/>
      <point x="124" y="348" type="line"/>
      <point x="124" y="316" type="line"/>
      <point x="486" y="62" type="line"/>
    </contour>
  </outline>
</glyph>
<glyph name="less_asciitilde_asciitilde_greater" format="1">
  <advance width="2400"/>
  <outline>
    <contour>
      <point x="486" y="98" type="line"/>
      <point x="234" y="275" type="line"/>
      <point x="244" y="272"/>
      <point x="255" y="270"/>
      <point x="266" y="270" type="curve" smooth="yes"/>
      <point x="297" y="270"/>
      <point x="331" y="283"/>
      <point x="357" y="325" type="curve" smooth="yes"/>
      <point x="377" y="357"/>
      <point x="399" y="362"/>
      <point x="424" y="362" type="curve" smooth="yes"/>
      <point x="483" y="362"/>
      <point x="532" y="270"/>
      <point x="609" y="270" type="curve" smooth="yes"/>
      <point x="640" y="270"/>
      <point x="674" y="283"/>
      <point x="700" y="325" type="curve" smooth="yes"/>
      <point x="720" y="357"/>
      <point x="742" y="362"/>
      <point x="767" y="362" type="curve" smooth="yes"/>
      <point x="826" y="362"/>
      <point x="874" y="270"/>
      <point x="952" y="270" type="curve" smooth="yes"/>
      <point x="983" y="270"/>
      <point x="1017" y="283"/>
      <point x="1043" y="325" type="curve" smooth="yes"/>
      <point x="1063" y="357"/>
      <point x="1085" y="362"/>
      <point x="1110" y="362" type="curve" smooth="yes"/>
      <point x="1170" y="362"/>
      <point x="1219" y="270"/>
      <point x="1295" y="270" type="curve" smooth="yes"/>
      <point x="1326" y="270"/>
      <point x="1360" y="283"/>
      <point x="1386" y="325" type="curve" smooth="yes"/>
      <point x="1406" y="357"/>
      <point x="1428" y="362"/>
      <point x="1453" y="362" type="curve" smooth="yes"/>
      <point x="1513" y="362"/>
      <point x="1561" y="270"/>
      <point x="1638" y="270" type="curve" smooth="yes"/>
      <point x="1669" y="270"/>
      <point x="1704" y="283"/>
      <point x="1729" y="325" type="curve" smooth="yes"/>
      <point x="1748" y="357"/>
      <point x="1771" y="362"/>
      <point x="1796" y="362" type="curve" smooth="yes"/>
      <point x="1856" y="362"/>
      <point x="1905" y="270"/>
      <point x="1981" y="270" type="curve" smooth="yes"/>
      <point x="2013" y="270"/>
      <point x="2046" y="283"/>
      <point x="2072" y="325" type="curve" smooth="yes"/>
      <point x="2092" y="358"/>
      <point x="2115" y="362"/>
      <point x="2139" y="362" type="curve" smooth="yes"/>
      <point x="2168" y="362"/>
      <point x="2196" y="340"/>
      <point x="2225" y="316" type="curve"/>
      <point x="1914" y="98" type="line"/>
      <point x="1914" y="62" type="line"/>
      <point x="2276" y="316" type="line"/>
      <point x="2276" y="348" type="line"/>
      <point x="1914" y="602" type="line"/>
      <point x="1914" y="566" type="line"/>
      <point x="2171" y="385" type="line"/>
      <point x="2161" y="388"/>
      <point x="2151" y="390"/>
      <point x="2141" y="390" type="curve" smooth="yes"/>
      <point x="2109" y="390"/>
      <point x="2077" y="377"/>
      <point x="2050" y="334" type="curve" smooth="yes"/>
      <point x="2029" y="301"/>
      <point x="2007" y="298"/>
      <point x="1983" y="298" type="curve" smooth="yes"/>
      <point x="1924" y="298"/>
      <point x="1875" y="390"/>
      <point x="1798" y="390" type="curve" smooth="yes"/>
      <point x="1767" y="390"/>
      <point x="1734" y="377"/>
      <point x="1707" y="334" type="curve" smooth="yes"/>
      <point x="1687" y="302"/>
      <point x="1665" y="298"/>
      <point x="1640" y="298" type="curve" smooth="yes"/>
      <point x="1581" y="298"/>
      <point x="1532" y="390"/>
      <point x="1455" y="390" type="curve" smooth="yes"/>
      <point x="1422" y="390"/>
      <point x="1390" y="377"/>
      <point x="1364" y="334" type="curve" smooth="yes"/>
      <point x="1344" y="301"/>
      <point x="1321" y="298"/>
      <point x="1297" y="298" type="curve" smooth="yes"/>
      <point x="1238" y="298"/>
      <point x="1189" y="390"/>
      <point x="1112" y="390" type="curve" smooth="yes"/>
      <point x="1080" y="390"/>
      <point x="1048" y="377"/>
      <point x="1021" y="334" type="curve" smooth="yes"/>
      <point x="1001" y="302"/>
      <point x="979" y="298"/>
      <point x="954" y="298" type="curve" smooth="yes"/>
      <point x="895" y="298"/>
      <point x="846" y="390"/>
      <point x="769" y="390" type="curve" smooth="yes"/>
      <point x="736" y="390"/>
      <point x="704" y="377"/>
      <point x="677" y="334" type="curve" smooth="yes"/>
      <point x="656" y="301"/>
      <point x="635" y="298"/>
      <point x="611" y="298" type="curve" smooth="yes"/>
      <point x="552" y="298"/>
      <point x="503" y="390"/>
      <point x="425" y="390" type="curve" smooth="yes"/>
      <point x="394" y="390"/>
      <point x="361" y="377"/>
      <point x="334" y="334" type="curve" smooth="yes"/>
      <point x="314" y="302"/>
      <point x="293" y="298"/>
      <point x="268" y="298" type="curve" smooth="yes"/>
      <point x="237" y="298"/>
      <point x="208" y="324"/>
      <point x="176" y="348" type="curve"/>
      <point x="486" y="566" type="line"/>
      <point x="486" y="602" type="line"/>
      <point x="124" y="348" type="line"/>
      <point x="124" y="316" type="line"/>
      <point x="486" y="62" type="line"/>
    </contour>
  </outline>
</glyph>
<glyph name="less_asciitilde_greater" format="1">
  <advance width="1800"/>
  <outline>
    <contour>
      <point x="486" y="98" type="line"/>
      <point x="229" y="279" type="line"/>
      <point x="243" y="273"/>
      <point x="257" y="270"/>
      <point x="273" y="270" type="curve" smooth="yes"/>
      <point x="306" y="270"/>
      <point x="342" y="283"/>
      <point x="370" y="325" type="curve" smooth="yes"/>
      <point x="391" y="357"/>
      <point x="415" y="362"/>
      <point x="441" y="362" type="curve" smooth="yes"/>
      <point x="503" y="362"/>
      <point x="556" y="270"/>
      <point x="638" y="270" type="curve" smooth="yes"/>
      <point x="671" y="270"/>
      <point x="707" y="283"/>
      <point x="735" y="325" type="curve" smooth="yes"/>
      <point x="756" y="357"/>
      <point x="779" y="362"/>
      <point x="804" y="362" type="curve" smooth="yes"/>
      <point x="868" y="362"/>
      <point x="918" y="270"/>
      <point x="1001" y="270" type="curve" smooth="yes"/>
      <point x="1036" y="270"/>
      <point x="1070" y="283"/>
      <point x="1098" y="325" type="curve" smooth="yes"/>
      <point x="1119" y="357"/>
      <point x="1144" y="362"/>
      <point x="1169" y="362" type="curve" smooth="yes"/>
      <point x="1232" y="362"/>
      <point x="1284" y="270"/>
      <point x="1366" y="270" type="curve" smooth="yes"/>
      <point x="1399" y="270"/>
      <point x="1435" y="283"/>
      <point x="1463" y="325" type="curve" smooth="yes"/>
      <point x="1484" y="357"/>
      <point x="1507" y="362"/>
      <point x="1532" y="362" type="curve" smooth="yes"/>
      <point x="1564" y="362"/>
      <point x="1593" y="339"/>
      <point x="1624" y="316" type="curve"/>
      <point x="1314" y="98" type="line"/>
      <point x="1314" y="62" type="line"/>
      <point x="1676" y="316" type="line"/>
      <point x="1676" y="348" type="line"/>
      <point x="1314" y="602" type="line"/>
      <point x="1314" y="566" type="line"/>
      <point x="1574" y="383" type="line"/>
      <point x="1562" y="387"/>
      <point x="1549" y="390"/>
      <point x="1535" y="390" type="curve" smooth="yes"/>
      <point x="1501" y="390"/>
      <point x="1465" y="377"/>
      <point x="1438" y="334" type="curve" smooth="yes"/>
      <point x="1417" y="300"/>
      <point x="1393" y="298"/>
      <point x="1368" y="298" type="curve" smooth="yes"/>
      <point x="1305" y="298"/>
      <point x="1254" y="390"/>
      <point x="1171" y="390" type="curve" smooth="yes"/>
      <point x="1139" y="390"/>
      <point x="1102" y="377"/>
      <point x="1074" y="334" type="curve" smooth="yes"/>
      <point x="1053" y="302"/>
      <point x="1030" y="298"/>
      <point x="1003" y="298" type="curve" smooth="yes"/>
      <point x="942" y="298"/>
      <point x="889" y="390"/>
      <point x="806" y="390" type="curve" smooth="yes"/>
      <point x="773" y="390"/>
      <point x="737" y="377"/>
      <point x="709" y="334" type="curve" smooth="yes"/>
      <point x="688" y="301"/>
      <point x="665" y="298"/>
      <point x="640" y="298" type="curve" smooth="yes"/>
      <point x="577" y="298"/>
      <point x="525" y="390"/>
      <point x="443" y="390" type="curve" smooth="yes"/>
      <point x="409" y="390"/>
      <point x="374" y="377"/>
      <point x="346" y="334" type="curve" smooth="yes"/>
      <point x="325" y="302"/>
      <point x="301" y="298"/>
      <point x="275" y="298" type="curve" smooth="yes"/>
      <point x="242" y="298"/>
      <point x="211" y="324"/>
      <point x="177" y="349" type="curve"/>
      <point x="486" y="566" type="line"/>
      <point x="486" y="602" type="line"/>
      <point x="124" y="348" type="line"/>
      <point x="124" y="316" type="line"/>
      <point x="486" y="62" type="line"/>
    </contour>
  </outline>
</glyph>
<glyph name="less_bar_bar" format="1">
  <advance width="1800"/>
  <outline>
    <contour>
      <point x="812" y="22" type="line"/>
      <point x="374" y="330" type="line"/>
      <point x="374" y="334" type="line"/>
      <point x="812" y="641" type="line"/>
      <point x="812" y="677" type="line"/>
      <point x="342" y="348" type="line"/>
      <point x="342" y="316" type="line"/>
      <point x="812" y="-14" type="line"/>
    </contour>
    <contour>
      <point x="914" y="-65" type="line"/>
      <point x="914" y="729" type="line"/>
      <point x="886" y="729" type="line"/>
      <point x="886" y="-65" type="line"/>
    </contour>
    <contour>
      <point x="1264" y="-65" type="line"/>
      <point x="1264" y="729" type="line"/>
      <point x="1236" y="729" type="line"/>
      <point x="1236" y="-65" type="line"/>
    </contour>
  </outline>
</glyph>
<glyph name="less_bar_bar_bar" format="1">
  <advance width="2400"/>
  <outline>
    <contour>
      <point x="938" y="22" type="line"/>
      <point x="500" y="330" type="line"/>
      <point x="500" y="334" type="line"/>
      <point x="938" y="641" type="line"/>
      <point x="938" y="677" type="line"/>
      <point x="468" y="348" type="line"/>
      <point x="468" y="316" type="line"/>
      <point x="938" y="-14" type="line"/>
    </contour>
    <contour>
      <point x="1040" y="-65" type="line"/>
      <point x="1040" y="729" type="line"/>
      <point x="1012" y="729" type="line"/>
      <point x="1012" y="-65" type="line"/>
    </contour>
    <contour>
      <point x="1390" y="-65" type="line"/>
      <point x="1390" y="729" type="line"/>
      <point x="1362" y="729" type="line"/>
      <point x="1362" y="-65" type="line"/>
    </contour>
    <contour>
      <point x="1740" y="-65" type="line"/>
      <point x="1740" y="729" type="line"/>
      <point x="1712" y="729" type="line"/>
      <point x="1712" y="-65" type="line"/>
    </contour>
  </outline>
</glyph>
<glyph name="less_dollar" format="1">
  <advance width="1200"/>
  <outline>
    <contour>
      <point x="694" y="-8" type="line"/>
      <point x="694" y="107" type="line"/>
      <point x="772" y="110"/>
      <point x="838" y="155"/>
      <point x="838" y="227" type="curve" smooth="yes"/>
      <point x="838" y="374"/>
      <point x="567" y="349"/>
      <point x="567" y="462" type="curve" smooth="yes"/>
      <point x="567" y="517"/>
      <point x="613" y="552"/>
      <point x="681" y="552" type="curve" smooth="yes"/>
      <point x="742" y="552"/>
      <point x="769" y="533"/>
      <point x="804" y="502" type="curve"/>
      <point x="820" y="518" type="line"/>
      <point x="789" y="547"/>
      <point x="755" y="571"/>
      <point x="694" y="574" type="curve"/>
      <point x="694" y="680" type="line"/>
      <point x="670" y="680" type="line"/>
      <point x="670" y="574" type="line"/>
      <point x="597" y="569"/>
      <point x="542" y="527"/>
      <point x="542" y="461" type="curve" smooth="yes"/>
      <point x="542" y="328"/>
      <point x="812" y="350"/>
      <point x="812" y="226" type="curve" smooth="yes"/>
      <point x="812" y="170"/>
      <point x="767" y="130"/>
      <point x="685" y="130" type="curve" smooth="yes"/>
      <point x="617" y="130"/>
      <point x="564" y="160"/>
      <point x="532" y="187" type="curve"/>
      <point x="518" y="170" type="line"/>
      <point x="551" y="141"/>
      <point x="604" y="111"/>
      <point x="670" y="107" type="curve"/>
      <point x="670" y="-8" type="line"/>
    </contour>
    <contour>
      <point x="486" y="98" type="line"/>
      <point x="156" y="330" type="line"/>
      <point x="156" y="334" type="line"/>
      <point x="486" y="566" type="line"/>
      <point x="486" y="602" type="line"/>
      <point x="124" y="348" type="line"/>
      <point x="124" y="316" type="line"/>
      <point x="486" y="62" type="line"/>
    </contour>
  </outline>
</glyph>
<glyph name="less_equal" format="1">
  <advance width="1200"/>
  <outline>
    <contour>
      <point x="441" y="330" type="line"/>
      <point x="441" y="334" type="line"/>
      <point x="771" y="566" type="line"/>
      <point x="771" y="602" type="line"/>
      <point x="409" y="348" type="line"/>
      <point x="409" y="316" type="line"/>
      <point x="771" y="62" type="line"/>
      <point x="771" y="98" type="line"/>
    </contour>
    <contour>
      <point x="409" y="220" type="line"/>
      <point x="409" y="188" type="line"/>
      <point x="771" y="-66" type="line"/>
      <point x="771" y="-30" type="line"/>
    </contour>
  </outline>
</glyph>
<glyph name="less_equal_equal" format="1">
  <advance width="1800"/>
  <outline>
    <contour>
      <point x="486" y="96" type="line"/>
      <point x="315" y="216" type="line"/>
      <point x="1702" y="216" type="line"/>
      <point x="1702" y="244" type="line"/>
      <point x="275" y="244" type="line"/>
      <point x="156" y="328" type="line"/>
      <point x="156" y="332" type="line"/>
      <point x="275" y="416" type="line"/>
      <point x="1702" y="416" type="line"/>
      <point x="1702" y="444" type="line"/>
      <point x="315" y="444" type="line"/>
      <point x="486" y="564" type="line"/>
      <point x="486" y="600" type="line"/>
      <point x="124" y="346" type="line"/>
      <point x="124" y="314" type="line"/>
      <point x="486" y="60" type="line"/>
    </contour>
  </outline>
</glyph>
<glyph name="less_equal_greater" format="1">
  <advance width="1800"/>
  <outline>
    <contour>
      <point x="486" y="96" type="line"/>
      <point x="315" y="216" type="line"/>
      <point x="1485" y="216" type="line"/>
      <point x="1314" y="96" type="line"/>
      <point x="1314" y="60" type="line"/>
      <point x="1676" y="314" type="line"/>
      <point x="1676" y="346" type="line"/>
      <point x="1314" y="600" type="line"/>
      <point x="1314" y="564" type="line"/>
      <point x="1485" y="444" type="line"/>
      <point x="315" y="444" type="line"/>
      <point x="486" y="564" type="line"/>
      <point x="486" y="600" type="line"/>
      <point x="124" y="346" type="line"/>
      <point x="124" y="314" type="line"/>
      <point x="486" y="60" type="line"/>
    </contour>
    <contour>
      <point x="156" y="328" type="line"/>
      <point x="156" y="332" type="line"/>
      <point x="275" y="416" type="line"/>
      <point x="1525" y="416" type="line"/>
      <point x="1644" y="332" type="line"/>
      <point x="1644" y="328" type="line"/>
      <point x="1525" y="244" type="line"/>
      <point x="275" y="244" type="line"/>
    </contour>
  </outline>
</glyph>
<glyph name="less_equal_less" format="1">
  <advance width="1800"/>
  <outline>
    <contour>
      <point x="486" y="58" type="line"/>
      <point x="486" y="94" type="line"/>
      <point x="153" y="328" type="line"/>
      <point x="486" y="562" type="line"/>
      <point x="486" y="598" type="line"/>
      <point x="102" y="328" type="line"/>
    </contour>
    <contour>
      <point x="1473" y="242" type="line"/>
      <point x="266" y="244" type="line"/>
      <point x="266" y="216" type="line"/>
      <point x="1473" y="214" type="line"/>
    </contour>
    <contour>
      <point x="1467" y="442" type="line"/>
      <point x="269" y="444" type="line"/>
      <point x="266" y="416" type="line"/>
      <point x="1467" y="414" type="line"/>
    </contour>
    <component base="less"/>
  </outline>
</glyph>
<glyph name="less_exclam_hyphen_hyphen" format="1">
  <advance width="2400"/>
  <outline>
    <contour>
      <point x="486" y="96" type="line"/>
      <point x="173" y="316" type="line"/>
      <point x="614" y="316" type="line"/>
      <point x="614" y="344" type="line"/>
      <point x="173" y="344" type="line"/>
      <point x="486" y="564" type="line"/>
      <point x="486" y="600" type="line"/>
      <point x="124" y="346" type="line"/>
      <point x="124" y="314" type="line"/>
      <point x="486" y="60" type="line"/>
    </contour>
    <contour>
      <point x="726" y="-12"/>
      <point x="752" y="8"/>
      <point x="752" y="46" type="curve" smooth="yes"/>
      <point x="752" y="84"/>
      <point x="726" y="104"/>
      <point x="700" y="104" type="curve" smooth="yes"/>
      <point x="674" y="104"/>
      <point x="648" y="84"/>
      <point x="648" y="46" type="curve" smooth="yes"/>
      <point x="648" y="8"/>
      <point x="674" y="-12"/>
      <point x="700" y="-12" type="curve" smooth="yes"/>
    </contour>
    <contour>
      <point x="712" y="214" type="line"/>
      <point x="714" y="608" type="line"/>
      <point x="714" y="670" type="line"/>
      <point x="686" y="670" type="line"/>
      <point x="686" y="608" type="line"/>
      <point x="688" y="214" type="line"/>
    </contour>
    <contour>
      <point x="2302" y="316" type="line"/>
      <point x="2302" y="344" type="line"/>
      <point x="786" y="344" type="line"/>
      <point x="786" y="316" type="line"/>
    </contour>
  </outline>
</glyph>
<glyph name="less_greater" format="1">
  <advance width="1200"/>
  <outline>
    <contour>
      <point x="1076" y="316" type="line"/>
      <point x="1076" y="348" type="line"/>
      <point x="600" y="602" type="line"/>
      <point x="124" y="348" type="line"/>
      <point x="124" y="316" type="line"/>
      <point x="600" y="62" type="line"/>
    </contour>
    <contour>
      <point x="156" y="330" type="line"/>
      <point x="156" y="334" type="line"/>
      <point x="600" y="566" type="line"/>
      <point x="1044" y="334" type="line"/>
      <point x="1044" y="330" type="line"/>
      <point x="600" y="98" type="line"/>
    </contour>
  </outline>
</glyph>
<glyph name="less_hyphen" format="1">
  <advance width="1200"/>
  <outline>
    <contour>
      <point x="102" y="332" type="line"/>
      <point x="486" y="62" type="line"/>
      <point x="486" y="98" type="line"/>
      <point x="176" y="316" type="line"/>
      <point x="1102" y="316" type="line"/>
      <point x="1102" y="344" type="line"/>
      <point x="170" y="344" type="line"/>
      <point x="486" y="566" type="line"/>
      <point x="486" y="602" type="line"/>
    </contour>
  </outline>
</glyph>
<glyph name="less_hyphen_greater" format="1">
  <advance width="1800"/>
  <outline>
    <contour>
      <point x="486" y="96" type="line"/>
      <point x="173" y="316" type="line"/>
      <point x="1627" y="316" type="line"/>
      <point x="1314" y="96" type="line"/>
      <point x="1314" y="60" type="line"/>
      <point x="1676" y="314" type="line"/>
      <point x="1676" y="346" type="line"/>
      <point x="1314" y="600" type="line"/>
      <point x="1314" y="564" type="line"/>
      <point x="1627" y="344" type="line"/>
      <point x="173" y="344" type="line"/>
      <point x="486" y="564" type="line"/>
      <point x="486" y="600" type="line"/>
      <point x="124" y="346" type="line"/>
      <point x="124" y="314" type="line"/>
      <point x="486" y="60" type="line"/>
    </contour>
  </outline>
</glyph>
<glyph name="less_less" format="1">
  <advance width="1200"/>
  <outline>
    <contour>
      <point x="960" y="98" type="line"/>
      <point x="630" y="330" type="line"/>
      <point x="630" y="334" type="line"/>
      <point x="960" y="566" type="line"/>
      <point x="960" y="602" type="line"/>
      <point x="598" y="348" type="line"/>
      <point x="598" y="316" type="line"/>
      <point x="960" y="62" type="line"/>
    </contour>
    <contour>
      <point x="612" y="98" type="line"/>
      <point x="282" y="330" type="line"/>
      <point x="282" y="334" type="line"/>
      <point x="612" y="566" type="line"/>
      <point x="612" y="602" type="line"/>
      <point x="250" y="348" type="line"/>
      <point x="250" y="316" type="line"/>
      <point x="612" y="62" type="line"/>
    </contour>
  </outline>
</glyph>
<glyph name="less_less_equal" format="1">
  <advance width="1800"/>
  <outline>
    <contour>
      <point x="834" y="96" type="line"/>
      <point x="663" y="216" type="line"/>
      <point x="1702" y="216" type="line"/>
      <point x="1702" y="244" type="line"/>
      <point x="623" y="244" type="line"/>
      <point x="504" y="328" type="line"/>
      <point x="504" y="332" type="line"/>
      <point x="623" y="416" type="line"/>
      <point x="1702" y="416" type="line"/>
      <point x="1702" y="444" type="line"/>
      <point x="663" y="444" type="line"/>
      <point x="834" y="564" type="line"/>
      <point x="834" y="600" type="line"/>
      <point x="472" y="346" type="line"/>
      <point x="472" y="314" type="line"/>
      <point x="834" y="60" type="line"/>
    </contour>
    <contour>
      <point x="486" y="96" type="line"/>
      <point x="156" y="328" type="line"/>
      <point x="156" y="332" type="line"/>
      <point x="486" y="564" type="line"/>
      <point x="486" y="600" type="line"/>
      <point x="124" y="346" type="line"/>
      <point x="124" y="314" type="line"/>
      <point x="486" y="60" type="line"/>
    </contour>
  </outline>
</glyph>
<glyph name="less_less_less" format="1">
  <advance width="1800"/>
  <outline>
    <contour>
      <point x="1434" y="98" type="line"/>
      <point x="1104" y="330" type="line"/>
      <point x="1104" y="334" type="line"/>
      <point x="1434" y="566" type="line"/>
      <point x="1434" y="602" type="line"/>
      <point x="1072" y="348" type="line"/>
      <point x="1072" y="316" type="line"/>
      <point x="1434" y="62" type="line"/>
    </contour>
    <contour>
      <point x="738" y="98" type="line"/>
      <point x="408" y="330" type="line"/>
      <point x="408" y="334" type="line"/>
      <point x="738" y="566" type="line"/>
      <point x="738" y="602" type="line"/>
      <point x="376" y="348" type="line"/>
      <point x="376" y="316" type="line"/>
      <point x="738" y="62" type="line"/>
    </contour>
    <contour>
      <point x="1086" y="98" type="line"/>
      <point x="756" y="330" type="line"/>
      <point x="756" y="334" type="line"/>
      <point x="1086" y="566" type="line"/>
      <point x="1086" y="602" type="line"/>
      <point x="724" y="348" type="line"/>
      <point x="724" y="316" type="line"/>
      <point x="1086" y="62" type="line"/>
    </contour>
  </outline>
</glyph>
<glyph name="numbersign_numbersign" format="1">
  <advance width="1200"/>
  <outline>
    <contour>
      <point x="186" y="0" type="line"/>
      <point x="213" y="218" type="line"/>
      <point x="369" y="218" type="line"/>
      <point x="342" y="0" type="line"/>
      <point x="370" y="0" type="line"/>
      <point x="397" y="218" type="line"/>
      <point x="785" y="218" type="line"/>
      <point x="758" y="0" type="line"/>
      <point x="786" y="0" type="line"/>
      <point x="813" y="218" type="line"/>
      <point x="969" y="218" type="line"/>
      <point x="942" y="0" type="line"/>
      <point x="970" y="0" type="line"/>
      <point x="997" y="218" type="line"/>
      <point x="1186" y="218" type="line"/>
      <point x="1186" y="246" type="line"/>
      <point x="1000" y="246" type="line"/>
      <point x="1022" y="424" type="line"/>
      <point x="1200" y="424" type="line"/>
      <point x="1200" y="452" type="line"/>
      <point x="1026" y="452" type="line"/>
      <point x="1050" y="650" type="line"/>
      <point x="1022" y="650" type="line"/>
      <point x="998" y="452" type="line"/>
      <point x="842" y="452" type="line"/>
      <point x="866" y="650" type="line"/>
      <point x="838" y="650" type="line"/>
      <point x="814" y="452" type="line"/>
      <point x="426" y="452" type="line"/>
      <point x="450" y="650" type="line"/>
      <point x="422" y="650" type="line"/>
      <point x="398" y="452" type="line"/>
      <point x="242" y="452" type="line"/>
      <point x="266" y="650" type="line"/>
      <point x="238" y="650" type="line"/>
      <point x="214" y="452" type="line"/>
      <point x="20" y="452" type="line"/>
      <point x="20" y="424" type="line"/>
      <point x="210" y="424" type="line"/>
      <point x="188" y="246" type="line"/>
      <point x="0" y="246" type="line"/>
      <point x="0" y="218" type="line"/>
      <point x="185" y="218" type="line"/>
      <point x="158" y="0" type="line"/>
    </contour>
    <contour>
      <point x="238" y="424" type="line"/>
      <point x="394" y="424" type="line"/>
      <point x="372" y="246" type="line"/>
      <point x="216" y="246" type="line"/>
    </contour>
    <contour>
      <point x="422" y="424" type="line"/>
      <point x="810" y="424" type="line"/>
      <point x="788" y="246" type="line"/>
      <point x="400" y="246" type="line"/>
    </contour>
    <contour>
      <point x="838" y="424" type="line"/>
      <point x="994" y="424" type="line"/>
      <point x="972" y="246" type="line"/>
      <point x="816" y="246" type="line"/>
    </contour>
  </outline>
</glyph>
<glyph name="numbersign_numbersign_numbersign" format="1">
  <advance width="1800"/>
  <outline>
    <contour>
      <point x="186" y="0" type="line"/>
      <point x="213" y="218" type="line"/>
      <point x="369" y="218" type="line"/>
      <point x="342" y="0" type="line"/>
      <point x="370" y="0" type="line"/>
      <point x="397" y="218" type="line"/>
      <point x="785" y="218" type="line"/>
      <point x="758" y="0" type="line"/>
      <point x="786" y="0" type="line"/>
      <point x="813" y="218" type="line"/>
      <point x="969" y="218" type="line"/>
      <point x="942" y="0" type="line"/>
      <point x="970" y="0" type="line"/>
      <point x="997" y="218" type="line"/>
      <point x="1385" y="218" type="line"/>
      <point x="1358" y="0" type="line"/>
      <point x="1386" y="0" type="line"/>
      <point x="1413" y="218" type="line"/>
      <point x="1569" y="218" type="line"/>
      <point x="1542" y="0" type="line"/>
      <point x="1570" y="0" type="line"/>
      <point x="1597" y="218" type="line"/>
      <point x="1786" y="218" type="line"/>
      <point x="1786" y="246" type="line"/>
      <point x="1600" y="246" type="line"/>
      <point x="1622" y="424" type="line"/>
      <point x="1800" y="424" type="line"/>
      <point x="1800" y="452" type="line"/>
      <point x="1626" y="452" type="line"/>
      <point x="1650" y="650" type="line"/>
      <point x="1622" y="650" type="line"/>
      <point x="1598" y="452" type="line"/>
      <point x="1442" y="452" type="line"/>
      <point x="1466" y="650" type="line"/>
      <point x="1438" y="650" type="line"/>
      <point x="1414" y="452" type="line"/>
      <point x="1026" y="452" type="line"/>
      <point x="1050" y="650" type="line"/>
      <point x="1022" y="650" type="line"/>
      <point x="998" y="452" type="line"/>
      <point x="842" y="452" type="line"/>
      <point x="866" y="650" type="line"/>
      <point x="838" y="650" type="line"/>
      <point x="814" y="452" type="line"/>
      <point x="426" y="452" type="line"/>
      <point x="450" y="650" type="line"/>
      <point x="422" y="650" type="line"/>
      <point x="398" y="452" type="line"/>
      <point x="242" y="452" type="line"/>
      <point x="266" y="650" type="line"/>
      <point x="238" y="650" type="line"/>
      <point x="214" y="452" type="line"/>
      <point x="20" y="452" type="line"/>
      <point x="20" y="424" type="line"/>
      <point x="210" y="424" type="line"/>
      <point x="188" y="246" type="line"/>
      <point x="0" y="246" type="line"/>
      <point x="0" y="218" type="line"/>
      <point x="185" y="218" type="line"/>
      <point x="158" y="0" type="line"/>
    </contour>
    <contour>
      <point x="238" y="424" type="line"/>
      <point x="394" y="424" type="line"/>
      <point x="372" y="246" type="line"/>
      <point x="216" y="246" type="line"/>
    </contour>
    <contour>
      <point x="422" y="424" type="line"/>
      <point x="810" y="424" type="line"/>
      <point x="788" y="246" type="line"/>
      <point x="400" y="246" type="line"/>
    </contour>
    <contour>
      <point x="838" y="424" type="line"/>
      <point x="994" y="424" type="line"/>
      <point x="972" y="246" type="line"/>
      <point x="816" y="246" type="line"/>
    </contour>
    <contour>
      <point x="1022" y="424" type="line"/>
      <point x="1410" y="424" type="line"/>
      <point x="1388" y="246" type="line"/>
      <point x="1000" y="246" type="line"/>
    </contour>
    <contour>
      <point x="1438" y="424" type="line"/>
      <point x="1594" y="424" type="line"/>
      <point x="1572" y="246" type="line"/>
      <point x="1416" y="246" type="line"/>
    </contour>
  </outline>
</glyph>
<glyph name="period_equal" format="1">
  <advance width="1200"/>
  <outline>
    <contour>
      <point x="1102" y="416" type="line"/>
      <point x="1102" y="444" type="line"/>
      <point x="518" y="444" type="line"/>
      <point x="518" y="416" type="line"/>
    </contour>
    <contour>
      <point x="326" y="272"/>
      <point x="352" y="292"/>
      <point x="352" y="330" type="curve" smooth="yes"/>
      <point x="352" y="368"/>
      <point x="326" y="388"/>
      <point x="300" y="388" type="curve" smooth="yes"/>
      <point x="274" y="388"/>
      <point x="248" y="368"/>
      <point x="248" y="330" type="curve" smooth="yes"/>
      <point x="248" y="292"/>
      <point x="274" y="272"/>
      <point x="300" y="272" type="curve" smooth="yes"/>
    </contour>
    <contour>
      <point x="1102" y="216" type="line"/>
      <point x="1102" y="244" type="line"/>
      <point x="518" y="244" type="line"/>
      <point x="518" y="216" type="line"/>
    </contour>
  </outline>
</glyph>
<glyph name="plus_plus" format="1">
  <advance width="1200"/>
  <outline>
    <contour>
      <point x="1082" y="316" type="line"/>
      <point x="1082" y="344" type="line"/>
      <point x="118" y="344" type="line"/>
      <point x="118" y="316" type="line"/>
    </contour>
    <component base="plus" xOffset="519"/>
    <component base="plus" xOffset="81"/>
  </outline>
</glyph>
<glyph name="plus_plus_plus" format="1">
  <advance width="1800"/>
  <outline>
    <contour>
      <point x="1702" y="316" type="line"/>
      <point x="1702" y="344" type="line"/>
      <point x="98" y="344" type="line"/>
      <point x="98" y="316" type="line"/>
    </contour>
    <component base="plus" xOffset="1075"/>
    <component base="plus" xOffset="600"/>
    <component base="plus" xOffset="125"/>
  </outline>
</glyph>
<glyph name="slash_equal" format="1">
  <advance width="1200"/>
  <outline>
    <contour>
      <point x="154" y="-160" type="line"/>
      <point x="480" y="710" type="line"/>
      <point x="446" y="710" type="line"/>
      <point x="120" y="-160" type="line"/>
    </contour>
    <contour>
      <point x="1102" y="216" type="line"/>
      <point x="1102" y="244" type="line"/>
      <point x="384" y="244" type="line"/>
      <point x="374" y="216" type="line"/>
    </contour>
    <contour>
      <point x="1102" y="416" type="line"/>
      <point x="1102" y="444" type="line"/>
      <point x="459" y="444" type="line"/>
      <point x="449" y="416" type="line"/>
    </contour>
  </outline>
</glyph>
<glyph name="slash_equal_equal" format="1">
  <advance width="1800"/>
  <outline>
    <contour>
      <point x="154" y="-160" type="line"/>
      <point x="480" y="710" type="line"/>
      <point x="446" y="710" type="line"/>
      <point x="120" y="-160" type="line"/>
    </contour>
    <contour>
      <point x="1702" y="116" type="line"/>
      <point x="1702" y="144" type="line"/>
      <point x="347" y="144" type="line"/>
      <point x="337" y="116" type="line"/>
    </contour>
    <contour>
      <point x="1702" y="316" type="line"/>
      <point x="1702" y="344" type="line"/>
      <point x="422" y="344" type="line"/>
      <point x="412" y="316" type="line"/>
    </contour>
    <contour>
      <point x="1702" y="516" type="line"/>
      <point x="1702" y="544" type="line"/>
      <point x="497" y="544" type="line"/>
      <point x="487" y="516" type="line"/>
    </contour>
  </outline>
</glyph>
<glyph name="w_w_w" format="1">
  <advance width="1800"/>
  <outline>
    <contour>
      <point x="225" y="0" type="line"/>
      <point x="305" y="258" type="line"/>
      <point x="319" y="297"/>
      <point x="328" y="335"/>
      <point x="339" y="373" type="curve"/>
      <point x="343" y="373" type="line"/>
      <point x="356" y="335"/>
      <point x="365" y="298"/>
      <point x="377" y="260" type="curve" smooth="yes"/>
      <point x="459" y="0" type="line"/>
      <point x="503" y="0" type="line"/>
      <point x="586" y="268" type="line" smooth="yes"/>
      <point x="597" y="305"/>
      <point x="608" y="338"/>
      <point x="619" y="373" type="curve"/>
      <point x="623" y="373" type="line"/>
      <point x="636" y="335"/>
      <point x="645" y="298"/>
      <point x="657" y="260" type="curve" smooth="yes"/>
      <point x="739" y="0" type="line"/>
      <point x="783" y="0" type="line"/>
      <point x="866" y="268" type="line" smooth="yes"/>
      <point x="877" y="305"/>
      <point x="888" y="338"/>
      <point x="899" y="373" type="curve"/>
      <point x="903" y="373" type="line"/>
      <point x="916" y="335"/>
      <point x="925" y="298"/>
      <point x="937" y="260" type="curve" smooth="yes"/>
      <point x="1019" y="0" type="line"/>
      <point x="1063" y="0" type="line"/>
      <point x="1146" y="268" type="line" smooth="yes"/>
      <point x="1157" y="305"/>
      <point x="1168" y="338"/>
      <point x="1179" y="373" type="curve"/>
      <point x="1183" y="373" type="line"/>
      <point x="1196" y="335"/>
      <point x="1205" y="298"/>
      <point x="1217" y="260" type="curve" smooth="yes"/>
      <point x="1299" y="0" type="line"/>
      <point x="1343" y="0" type="line"/>
      <point x="1423" y="258" type="line"/>
      <point x="1457" y="373" type="line"/>
      <point x="1461" y="373" type="line"/>
      <point x="1474" y="335"/>
      <point x="1483" y="298"/>
      <point x="1495" y="260" type="curve" smooth="yes"/>
      <point x="1577" y="0" type="line"/>
      <point x="1619" y="0" type="line"/>
      <point x="1747" y="478" type="line"/>
      <point x="1715" y="478" type="line"/>
      <point x="1633" y="156" type="line" smooth="yes"/>
      <point x="1622" y="112"/>
      <point x="1612" y="72"/>
      <point x="1601" y="30" type="curve"/>
      <point x="1597" y="25" type="line"/>
      <point x="1586" y="60"/>
      <point x="1575" y="93"/>
      <point x="1564" y="130" type="curve" smooth="yes"/>
      <point x="1481" y="398" type="line"/>
      <point x="1439" y="398" type="line"/>
      <point x="1356" y="130" type="line" smooth="yes"/>
      <point x="1345" y="93"/>
      <point x="1334" y="60"/>
      <point x="1323" y="25" type="curve"/>
      <point x="1319" y="25" type="line"/>
      <point x="1308" y="60"/>
      <point x="1297" y="93"/>
      <point x="1286" y="130" type="curve" smooth="yes"/>
      <point x="1203" y="398" type="line"/>
      <point x="1159" y="398" type="line"/>
      <point x="1077" y="138" type="line" smooth="yes"/>
      <point x="1065" y="100"/>
      <point x="1056" y="63"/>
      <point x="1043" y="25" type="curve"/>
      <point x="1039" y="25" type="line"/>
      <point x="1028" y="60"/>
      <point x="1017" y="93"/>
      <point x="1006" y="130" type="curve" smooth="yes"/>
      <point x="923" y="398" type="line"/>
      <point x="879" y="398" type="line"/>
      <point x="797" y="138" type="line" smooth="yes"/>
      <point x="785" y="100"/>
      <point x="776" y="63"/>
      <point x="763" y="25" type="curve"/>
      <point x="759" y="25" type="line"/>
      <point x="748" y="60"/>
      <point x="737" y="93"/>
      <point x="726" y="130" type="curve" smooth="yes"/>
      <point x="643" y="398" type="line"/>
      <point x="599" y="398" type="line"/>
      <point x="517" y="138" type="line" smooth="yes"/>
      <point x="505" y="100"/>
      <point x="496" y="63"/>
      <point x="483" y="25" type="curve"/>
      <point x="479" y="25" type="line"/>
      <point x="468" y="60"/>
      <point x="457" y="93"/>
      <point x="446" y="130" type="curve" smooth="yes"/>
      <point x="363" y="398" type="line"/>
      <point x="321" y="398" type="line"/>
      <point x="238" y="130" type="line" smooth="yes"/>
      <point x="227" y="93"/>
      <point x="216" y="60"/>
      <point x="205" y="25" type="curve"/>
      <point x="201" y="30" type="line"/>
      <point x="192" y="72"/>
      <point x="181" y="112"/>
      <point x="170" y="156" type="curve" smooth="yes"/>
      <point x="87" y="478" type="line"/>
      <point x="53" y="478" type="line"/>
      <point x="183" y="0" type="line"/>
    </contour>
  </outline>
</glyph>
